TITLE ""
FILE "Disc4Track65.mp3" MP3
  TRACK 01 AUDIO
    TITLE "Disc4Track65_01"
    INDEX 01 00:00:00
  TRACK 02 AUDIO
    TITLE "Disc4Track65_02"
    INDEX 01 00:01:22
  TRACK 03 AUDIO
    TITLE "Disc4Track65_03"
    INDEX 01 00:02:29
  TRACK 04 AUDIO
    TITLE "Disc4Track65_04"
    INDEX 01 00:03:58
  TRACK 05 AUDIO
    TITLE "Disc4Track65_05"
    INDEX 01 00:05:57
  TRACK 06 AUDIO
    TITLE "Disc4Track65_06"
    INDEX 01 00:06:13
  TRACK 07 AUDIO
    TITLE "Disc4Track65_07"
    INDEX 01 00:07:34
  TRACK 08 AUDIO
    TITLE "Disc4Track65_08"
    INDEX 01 00:09:66
  TRACK 09 AUDIO
    TITLE "Disc4Track65_09"
    INDEX 01 00:11:14
  TRACK 10 AUDIO
    TITLE "Disc4Track65_10"
    INDEX 01 00:11:49
  TRACK 11 AUDIO
    TITLE "Disc4Track65_11"
    INDEX 01 00:13:01
  TRACK 12 AUDIO
    TITLE "Disc4Track65_12"
    INDEX 01 00:14:07
  TRACK 13 AUDIO
    TITLE "Disc4Track65_13"
    INDEX 01 00:15:33
  TRACK 14 AUDIO
    TITLE "Disc4Track65_14"
    INDEX 01 00:17:50
  TRACK 15 AUDIO
    TITLE "Disc4Track65_15"
    INDEX 01 00:18:06
  TRACK 16 AUDIO
    TITLE "Disc4Track65_16"
    INDEX 01 00:19:41
  TRACK 17 AUDIO
    TITLE "Disc4Track65_17"
    INDEX 01 00:20:52
  TRACK 18 AUDIO
    TITLE "Disc4Track65_18"
    INDEX 01 00:22:14
  TRACK 19 AUDIO
    TITLE "Disc4Track65_19"
    INDEX 01 00:22:53
  TRACK 20 AUDIO
    TITLE "Disc4Track65_20"
    INDEX 01 00:23:70
  TRACK 21 AUDIO
    TITLE "Disc4Track65_21"
    INDEX 01 00:25:24
  TRACK 22 AUDIO
    TITLE "Disc4Track65_22"
    INDEX 01 00:26:41
  TRACK 23 AUDIO
    TITLE "Disc4Track65_23"
    INDEX 01 00:27:07
  TRACK 24 AUDIO
    TITLE "Disc4Track65_24"
    INDEX 01 00:28:42
  TRACK 25 AUDIO
    TITLE "Disc4Track65_25"
    INDEX 01 00:30:02
  TRACK 26 AUDIO
    TITLE "Disc4Track65_26"
    INDEX 01 00:31:34
  TRACK 27 AUDIO
    TITLE "Disc4Track65_27"
    INDEX 01 00:32:02
  TRACK 28 AUDIO
    TITLE "Disc4Track65_28"
    INDEX 01 00:33:16
  TRACK 29 AUDIO
    TITLE "Disc4Track65_29"
    INDEX 01 00:34:01
  TRACK 30 AUDIO
    TITLE "Disc4Track65_30"
    INDEX 01 00:35:15
  TRACK 31 AUDIO
    TITLE "Disc4Track65_31"
    INDEX 01 00:36:69
  TRACK 32 AUDIO
    TITLE "Disc4Track65_32"
    INDEX 01 00:37:27
  TRACK 33 AUDIO
    TITLE "Disc4Track65_33"
    INDEX 01 00:38:38
  TRACK 34 AUDIO
    TITLE "Disc4Track65_34"
    INDEX 01 00:39:32
  TRACK 35 AUDIO
    TITLE "Disc4Track65_35"
    INDEX 01 00:40:45
  TRACK 36 AUDIO
    TITLE "Disc4Track65_36"
    INDEX 01 00:42:20
  TRACK 37 AUDIO
    TITLE "Disc4Track65_37"
    INDEX 01 00:42:50
  TRACK 38 AUDIO
    TITLE "Disc4Track65_38"
    INDEX 01 00:44:19
  TRACK 39 AUDIO
    TITLE "Disc4Track65_39"
    INDEX 01 00:45:36
  TRACK 40 AUDIO
    TITLE "Disc4Track65_40"
    INDEX 01 00:47:08
  TRACK 41 AUDIO
    TITLE "Disc4Track65_41"
    INDEX 01 00:47:47
  TRACK 42 AUDIO
    TITLE "Disc4Track65_42"
    INDEX 01 00:49:01
  TRACK 43 AUDIO
    TITLE "Disc4Track65_43"
    INDEX 01 00:49:58
  TRACK 44 AUDIO
    TITLE "Disc4Track65_44"
    INDEX 01 00:51:12
  TRACK 45 AUDIO
    TITLE "Disc4Track65_45"
    INDEX 01 00:51:51
  TRACK 46 AUDIO
    TITLE "Disc4Track65_46"
    INDEX 01 00:53:03
  TRACK 47 AUDIO
    TITLE "Disc4Track65_47"
    INDEX 01 00:53:67
  TRACK 48 AUDIO
    TITLE "Disc4Track65_48"
    INDEX 01 00:55:23
  TRACK 49 AUDIO
    TITLE "Disc4Track65_49"
    INDEX 01 00:55:62
  TRACK 50 AUDIO
    TITLE "Disc4Track65_50"
    INDEX 01 00:57:12
  TRACK 51 AUDIO
    TITLE "Disc4Track65_51"
    INDEX 01 00:57:75
  TRACK 52 AUDIO
    TITLE "Disc4Track65_52"
    INDEX 01 00:59:25
  TRACK 53 AUDIO
    TITLE "Disc4Track65_53"
    INDEX 01 00:59:66
  TRACK 54 AUDIO
    TITLE "Disc4Track65_54"
    INDEX 01 01:01:12
  TRACK 55 AUDIO
    TITLE "Disc4Track65_55"
    INDEX 01 01:02:27
  TRACK 56 AUDIO
    TITLE "Disc4Track65_56"
    INDEX 01 01:03:52
